<svg xmlns="http://www.w3.org/2000/svg" viewBox="0 0 420.0 420.0" width="420.0" height="420.0" role="img"><polygon points="374,197 155,159 157,245 366,293" fill="#fdfcfa" stroke="#30363d" stroke-width="1.2" stroke-linejoin="round"/><polygon points="155,159 31,224 41,326 157,245" fill="#fdfcfa" stroke="#30363d" stroke-width="1.2" stroke-linejoin="round"/><polygon points="383,91 152,65 155,159 374,197" fill="#fdfcfa" stroke="#30363d" stroke-width="1.2" stroke-linejoin="round"/><polygon points="41,326 287,401 366,293 157,245" fill="#fdfcfa" stroke="#30363d" stroke-width="1.2" stroke-linejoin="round"/><polygon points="152,65 21,110 31,224 155,159" fill="#fdfcfa" stroke="#30363d" stroke-width="1.2" stroke-linejoin="round"/><polygon points="31,224 292,285 374,197 155,159" fill="#fdfcfa" stroke="#30363d" stroke-width="1.2" stroke-linejoin="round"/><polygon points="155,159 374,197 292,285 31,224" fill="#fdfcfa" stroke="#30363d" stroke-width="1.2" stroke-linejoin="round"/><g transform="matrix(219.757 38.062 -123.356 64.927 154.538 159.074)"><text x="0.06" y="0.13" font-size="0.06" font-weight="500" fill="#4b5563" font-family="ui-monospace, monospace">bottom</text><text x="0.06" y="0.46" font-size="0.1" font-weight="700" fill="#000000" font-family="ui-monospace, monospace"><tspan fill="#1d4ed8">lid</tspan></text></g><polygon points="292,285 374,197 366,293 287,401" fill="#fdfcfa" stroke="#30363d" stroke-width="1.2" stroke-linejoin="round"/><g transform="matrix(82.546 -87.925 -5.075 115.817 291.748 285.061)"><text x="0.06" y="0.13" font-size="0.06" font-weight="500" fill="#4b5563" font-family="ui-monospace, monospace">bottom</text><text x="0.06" y="0.46" font-size="0.1" font-weight="700" fill="#000000" font-family="ui-monospace, monospace"><tspan fill="#1d4ed8">right</tspan></text></g><polygon points="152,65 383,91 298,153 21,110" fill="#fdfcfa" stroke="#30363d" stroke-width="1.2" stroke-linejoin="round"/><g transform="matrix(231.256 25.988 -131.332 44.545 151.93 65.432)"><text x="0.06" y="0.13" font-size="0.06" font-weight="500" fill="#4b5563" font-family="ui-monospace, monospace">top</text><text x="0.06" y="0.46" font-size="0.1" font-weight="700" fill="#000000" font-family="ui-monospace, monospace"><tspan fill="#1d4ed8">lid</tspan></text></g><polygon points="31,224 292,285 287,401 41,326" fill="#fdfcfa" stroke="#30363d" stroke-width="1.2" stroke-linejoin="round"/><g transform="matrix(260.566 61.06 9.464 101.955 31.182 224.001)"><text x="0.06" y="0.13" font-size="0.06" font-weight="500" fill="#4b5563" font-family="ui-monospace, monospace">bottom</text><text x="0.06" y="0.46" font-size="0.1" font-weight="700" fill="#000000" font-family="ui-monospace, monospace"><tspan fill="#1d4ed8">front</tspan></text></g><polygon points="298,153 383,91 374,197 292,285" fill="#fdfcfa" stroke="#30363d" stroke-width="1.2" stroke-linejoin="round"/><g transform="matrix(85.643 -61.403 -5.795 132.237 297.543 152.824)"><text x="0.06" y="0.13" font-size="0.06" font-weight="500" fill="#4b5563" font-family="ui-monospace, monospace">top</text><text x="0.06" y="0.46" font-size="0.1" font-weight="700" fill="#000000" font-family="ui-monospace, monospace"><tspan fill="#1d4ed8">right</tspan></text></g><polygon points="21,110 298,153 292,285 31,224" fill="#fdfcfa" stroke="#30363d" stroke-width="1.2" stroke-linejoin="round"/><g transform="matrix(276.945 42.847 10.584 114.024 20.598 109.977)"><text x="0.06" y="0.13" font-size="0.06" font-weight="500" fill="#4b5563" font-family="ui-monospace, monospace">top</text><text x="0.06" y="0.46" font-size="0.1" font-weight="700" fill="#000000" font-family="ui-monospace, monospace"><tspan fill="#1d4ed8">front</tspan></text></g></svg>