<svg xmlns="http://www.w3.org/2000/svg" width="1512" height="768" viewBox="0 0 1512 768" role="img">
<rect width="1512" height="768" fill="#f8fafc"/>
<rect x="744" y="0" width="24" height="24" fill="#1f2937"/>
<rect x="720" y="24" width="24" height="24" fill="#1f2937"/>
<rect x="768" y="24" width="24" height="24" fill="#1f2937"/>
<rect x="696" y="48" width="24" height="24" fill="#1f2937"/>
<rect x="792" y="48" width="24" height="24" fill="#1f2937"/>
<rect x="672" y="72" width="24" height="24" fill="#1f2937"/>
<rect x="720" y="72" width="24" height="24" fill="#1f2937"/>
<rect x="768" y="72" width="24" height="24" fill="#1f2937"/>
<rect x="816" y="72" width="24" height="24" fill="#1f2937"/>
<rect x="648" y="96" width="24" height="24" fill="#1f2937"/>
<rect x="840" y="96" width="24" height="24" fill="#1f2937"/>
<rect x="624" y="120" width="24" height="24" fill="#1f2937"/>
<rect x="672" y="120" width="24" height="24" fill="#1f2937"/>
<rect x="816" y="120" width="24" height="24" fill="#1f2937"/>
<rect x="864" y="120" width="24" height="24" fill="#1f2937"/>
<rect x="600" y="144" width="24" height="24" fill="#1f2937"/>
<rect x="696" y="144" width="24" height="24" fill="#1f2937"/>
<rect x="792" y="144" width="24" height="24" fill="#1f2937"/>
<rect x="888" y="144" width="24" height="24" fill="#1f2937"/>
<rect x="576" y="168" width="24" height="24" fill="#1f2937"/>
<rect x="624" y="168" width="24" height="24" fill="#1f2937"/>
<rect x="672" y="168" width="24" height="24" fill="#1f2937"/>
<rect x="720" y="168" width="24" height="24" fill="#1f2937"/>
<rect x="768" y="168" width="24" height="24" fill="#1f2937"/>
<rect x="816" y="168" width="24" height="24" fill="#1f2937"/>
<rect x="864" y="168" width="24" height="24" fill="#1f2937"/>
<rect x="912" y="168" width="24" height="24" fill="#1f2937"/>
<rect x="552" y="192" width="24" height="24" fill="#1f2937"/>
<rect x="936" y="192" width="24" height="24" fill="#1f2937"/>
<rect x="528" y="216" width="24" height="24" fill="#1f2937"/>
<rect x="576" y="216" width="24" height="24" fill="#1f2937"/>
<rect x="912" y="216" width="24" height="24" fill="#1f2937"/>
<rect x="960" y="216" width="24" height="24" fill="#1f2937"/>
<rect x="504" y="240" width="24" height="24" fill="#1f2937"/>
<rect x="600" y="240" width="24" height="24" fill="#1f2937"/>
<rect x="888" y="240" width="24" height="24" fill="#1f2937"/>
<rect x="984" y="240" width="24" height="24" fill="#1f2937"/>
<rect x="480" y="264" width="24" height="24" fill="#1f2937"/>
<rect x="528" y="264" width="24" height="24" fill="#1f2937"/>
<rect x="576" y="264" width="24" height="24" fill="#1f2937"/>
<rect x="624" y="264" width="24" height="24" fill="#1f2937"/>
<rect x="864" y="264" width="24" height="24" fill="#1f2937"/>
<rect x="912" y="264" width="24" height="24" fill="#1f2937"/>
<rect x="960" y="264" width="24" height="24" fill="#1f2937"/>
<rect x="1008" y="264" width="24" height="24" fill="#1f2937"/>
<rect x="456" y="288" width="24" height="24" fill="#1f2937"/>
<rect x="648" y="288" width="24" height="24" fill="#1f2937"/>
<rect x="840" y="288" width="24" height="24" fill="#1f2937"/>
<rect x="1032" y="288" width="24" height="24" fill="#1f2937"/>
<rect x="432" y="312" width="24" height="24" fill="#1f2937"/>
<rect x="480" y="312" width="24" height="24" fill="#1f2937"/>
<rect x="624" y="312" width="24" height="24" fill="#1f2937"/>
<rect x="672" y="312" width="24" height="24" fill="#1f2937"/>
<rect x="816" y="312" width="24" height="24" fill="#1f2937"/>
<rect x="864" y="312" width="24" height="24" fill="#1f2937"/>
<rect x="1008" y="312" width="24" height="24" fill="#1f2937"/>
<rect x="1056" y="312" width="24" height="24" fill="#1f2937"/>
<rect x="408" y="336" width="24" height="24" fill="#1f2937"/>
<rect x="504" y="336" width="24" height="24" fill="#1f2937"/>
<rect x="600" y="336" width="24" height="24" fill="#1f2937"/>
<rect x="696" y="336" width="24" height="24" fill="#1f2937"/>
<rect x="792" y="336" width="24" height="24" fill="#1f2937"/>
<rect x="888" y="336" width="24" height="24" fill="#1f2937"/>
<rect x="984" y="336" width="24" height="24" fill="#1f2937"/>
<rect x="1080" y="336" width="24" height="24" fill="#1f2937"/>
<rect x="384" y="360" width="24" height="24" fill="#1f2937"/>
<rect x="432" y="360" width="24" height="24" fill="#1f2937"/>
<rect x="480" y="360" width="24" height="24" fill="#1f2937"/>
<rect x="528" y="360" width="24" height="24" fill="#1f2937"/>
<rect x="576" y="360" width="24" height="24" fill="#1f2937"/>
<rect x="624" y="360" width="24" height="24" fill="#1f2937"/>
<rect x="672" y="360" width="24" height="24" fill="#1f2937"/>
<rect x="720" y="360" width="24" height="24" fill="#1f2937"/>
<rect x="768" y="360" width="24" height="24" fill="#1f2937"/>
<rect x="816" y="360" width="24" height="24" fill="#1f2937"/>
<rect x="864" y="360" width="24" height="24" fill="#1f2937"/>
<rect x="912" y="360" width="24" height="24" fill="#1f2937"/>
<rect x="960" y="360" width="24" height="24" fill="#1f2937"/>
<rect x="1008" y="360" width="24" height="24" fill="#1f2937"/>
<rect x="1056" y="360" width="24" height="24" fill="#1f2937"/>
<rect x="1104" y="360" width="24" height="24" fill="#1f2937"/>
<rect x="360" y="384" width="24" height="24" fill="#1f2937"/>
<rect x="1128" y="384" width="24" height="24" fill="#1f2937"/>
<rect x="336" y="408" width="24" height="24" fill="#1f2937"/>
<rect x="384" y="408" width="24" height="24" fill="#1f2937"/>
<rect x="1104" y="408" width="24" height="24" fill="#1f2937"/>
<rect x="1152" y="408" width="24" height="24" fill="#1f2937"/>
<rect x="312" y="432" width="24" height="24" fill="#1f2937"/>
<rect x="408" y="432" width="24" height="24" fill="#1f2937"/>
<rect x="1080" y="432" width="24" height="24" fill="#1f2937"/>
<rect x="1176" y="432" width="24" height="24" fill="#1f2937"/>
<rect x="288" y="456" width="24" height="24" fill="#1f2937"/>
<rect x="336" y="456" width="24" height="24" fill="#1f2937"/>
<rect x="384" y="456" width="24" height="24" fill="#1f2937"/>
<rect x="432" y="456" width="24" height="24" fill="#1f2937"/>
<rect x="1056" y="456" width="24" height="24" fill="#1f2937"/>
<rect x="1104" y="456" width="24" height="24" fill="#1f2937"/>
<rect x="1152" y="456" width="24" height="24" fill="#1f2937"/>
<rect x="1200" y="456" width="24" height="24" fill="#1f2937"/>
<rect x="264" y="480" width="24" height="24" fill="#1f2937"/>
<rect x="456" y="480" width="24" height="24" fill="#1f2937"/>
<rect x="1032" y="480" width="24" height="24" fill="#1f2937"/>
<rect x="1224" y="480" width="24" height="24" fill="#1f2937"/>
<rect x="240" y="504" width="24" height="24" fill="#1f2937"/>
<rect x="288" y="504" width="24" height="24" fill="#1f2937"/>
<rect x="432" y="504" width="24" height="24" fill="#1f2937"/>
<rect x="480" y="504" width="24" height="24" fill="#1f2937"/>
<rect x="1008" y="504" width="24" height="24" fill="#1f2937"/>
<rect x="1056" y="504" width="24" height="24" fill="#1f2937"/>
<rect x="1200" y="504" width="24" height="24" fill="#1f2937"/>
<rect x="1248" y="504" width="24" height="24" fill="#1f2937"/>
<rect x="216" y="528" width="24" height="24" fill="#1f2937"/>
<rect x="312" y="528" width="24" height="24" fill="#1f2937"/>
<rect x="408" y="528" width="24" height="24" fill="#1f2937"/>
<rect x="504" y="528" width="24" height="24" fill="#1f2937"/>
<rect x="984" y="528" width="24" height="24" fill="#1f2937"/>
<rect x="1080" y="528" width="24" height="24" fill="#1f2937"/>
<rect x="1176" y="528" width="24" height="24" fill="#1f2937"/>
<rect x="1272" y="528" width="24" height="24" fill="#1f2937"/>
<rect x="192" y="552" width="24" height="24" fill="#1f2937"/>
<rect x="240" y="552" width="24" height="24" fill="#1f2937"/>
<rect x="288" y="552" width="24" height="24" fill="#1f2937"/>
<rect x="336" y="552" width="24" height="24" fill="#1f2937"/>
<rect x="384" y="552" width="24" height="24" fill="#1f2937"/>
<rect x="432" y="552" width="24" height="24" fill="#1f2937"/>
<rect x="480" y="552" width="24" height="24" fill="#1f2937"/>
<rect x="528" y="552" width="24" height="24" fill="#1f2937"/>
<rect x="960" y="552" width="24" height="24" fill="#1f2937"/>
<rect x="1008" y="552" width="24" height="24" fill="#1f2937"/>
<rect x="1056" y="552" width="24" height="24" fill="#1f2937"/>
<rect x="1104" y="552" width="24" height="24" fill="#1f2937"/>
<rect x="1152" y="552" width="24" height="24" fill="#1f2937"/>
<rect x="1200" y="552" width="24" height="24" fill="#1f2937"/>
<rect x="1248" y="552" width="24" height="24" fill="#1f2937"/>
<rect x="1296" y="552" width="24" height="24" fill="#1f2937"/>
<rect x="168" y="576" width="24" height="24" fill="#1f2937"/>
<rect x="552" y="576" width="24" height="24" fill="#1f2937"/>
<rect x="936" y="576" width="24" height="24" fill="#1f2937"/>
<rect x="1320" y="576" width="24" height="24" fill="#1f2937"/>
<rect x="144" y="600" width="24" height="24" fill="#1f2937"/>
<rect x="192" y="600" width="24" height="24" fill="#1f2937"/>
<rect x="528" y="600" width="24" height="24" fill="#1f2937"/>
<rect x="576" y="600" width="24" height="24" fill="#1f2937"/>
<rect x="912" y="600" width="24" height="24" fill="#1f2937"/>
<rect x="960" y="600" width="24" height="24" fill="#1f2937"/>
<rect x="1296" y="600" width="24" height="24" fill="#1f2937"/>
<rect x="1344" y="600" width="24" height="24" fill="#1f2937"/>
<rect x="120" y="624" width="24" height="24" fill="#1f2937"/>
<rect x="216" y="624" width="24" height="24" fill="#1f2937"/>
<rect x="504" y="624" width="24" height="24" fill="#1f2937"/>
<rect x="600" y="624" width="24" height="24" fill="#1f2937"/>
<rect x="888" y="624" width="24" height="24" fill="#1f2937"/>
<rect x="984" y="624" width="24" height="24" fill="#1f2937"/>
<rect x="1272" y="624" width="24" height="24" fill="#1f2937"/>
<rect x="1368" y="624" width="24" height="24" fill="#1f2937"/>
<rect x="96" y="648" width="24" height="24" fill="#1f2937"/>
<rect x="144" y="648" width="24" height="24" fill="#1f2937"/>
<rect x="192" y="648" width="24" height="24" fill="#1f2937"/>
<rect x="240" y="648" width="24" height="24" fill="#1f2937"/>
<rect x="480" y="648" width="24" height="24" fill="#1f2937"/>
<rect x="528" y="648" width="24" height="24" fill="#1f2937"/>
<rect x="576" y="648" width="24" height="24" fill="#1f2937"/>
<rect x="624" y="648" width="24" height="24" fill="#1f2937"/>
<rect x="864" y="648" width="24" height="24" fill="#1f2937"/>
<rect x="912" y="648" width="24" height="24" fill="#1f2937"/>
<rect x="960" y="648" width="24" height="24" fill="#1f2937"/>
<rect x="1008" y="648" width="24" height="24" fill="#1f2937"/>
<rect x="1248" y="648" width="24" height="24" fill="#1f2937"/>
<rect x="1296" y="648" width="24" height="24" fill="#1f2937"/>
<rect x="1344" y="648" width="24" height="24" fill="#1f2937"/>
<rect x="1392" y="648" width="24" height="24" fill="#1f2937"/>
<rect x="72" y="672" width="24" height="24" fill="#1f2937"/>
<rect x="264" y="672" width="24" height="24" fill="#1f2937"/>
<rect x="456" y="672" width="24" height="24" fill="#1f2937"/>
<rect x="648" y="672" width="24" height="24" fill="#1f2937"/>
<rect x="840" y="672" width="24" height="24" fill="#1f2937"/>
<rect x="1032" y="672" width="24" height="24" fill="#1f2937"/>
<rect x="1224" y="672" width="24" height="24" fill="#1f2937"/>
<rect x="1416" y="672" width="24" height="24" fill="#1f2937"/>
<rect x="48" y="696" width="24" height="24" fill="#1f2937"/>
<rect x="96" y="696" width="24" height="24" fill="#1f2937"/>
<rect x="240" y="696" width="24" height="24" fill="#1f2937"/>
<rect x="288" y="696" width="24" height="24" fill="#1f2937"/>
<rect x="432" y="696" width="24" height="24" fill="#1f2937"/>
<rect x="480" y="696" width="24" height="24" fill="#1f2937"/>
<rect x="624" y="696" width="24" height="24" fill="#1f2937"/>
<rect x="672" y="696" width="24" height="24" fill="#1f2937"/>
<rect x="816" y="696" width="24" height="24" fill="#1f2937"/>
<rect x="864" y="696" width="24" height="24" fill="#1f2937"/>
<rect x="1008" y="696" width="24" height="24" fill="#1f2937"/>
<rect x="1056" y="696" width="24" height="24" fill="#1f2937"/>
<rect x="1200" y="696" width="24" height="24" fill="#1f2937"/>
<rect x="1248" y="696" width="24" height="24" fill="#1f2937"/>
<rect x="1392" y="696" width="24" height="24" fill="#1f2937"/>
<rect x="1440" y="696" width="24" height="24" fill="#1f2937"/>
<rect x="24" y="720" width="24" height="24" fill="#1f2937"/>
<rect x="120" y="720" width="24" height="24" fill="#1f2937"/>
<rect x="216" y="720" width="24" height="24" fill="#1f2937"/>
<rect x="312" y="720" width="24" height="24" fill="#1f2937"/>
<rect x="408" y="720" width="24" height="24" fill="#1f2937"/>
<rect x="504" y="720" width="24" height="24" fill="#1f2937"/>
<rect x="600" y="720" width="24" height="24" fill="#1f2937"/>
<rect x="696" y="720" width="24" height="24" fill="#1f2937"/>
<rect x="792" y="720" width="24" height="24" fill="#1f2937"/>
<rect x="888" y="720" width="24" height="24" fill="#1f2937"/>
<rect x="984" y="720" width="24" height="24" fill="#1f2937"/>
<rect x="1080" y="720" width="24" height="24" fill="#1f2937"/>
<rect x="1176" y="720" width="24" height="24" fill="#1f2937"/>
<rect x="1272" y="720" width="24" height="24" fill="#1f2937"/>
<rect x="1368" y="720" width="24" height="24" fill="#1f2937"/>
<rect x="1464" y="720" width="24" height="24" fill="#1f2937"/>
<rect x="0" y="744" width="24" height="24" fill="#1f2937"/>
<rect x="48" y="744" width="24" height="24" fill="#1f2937"/>
<rect x="96" y="744" width="24" height="24" fill="#1f2937"/>
<rect x="144" y="744" width="24" height="24" fill="#1f2937"/>
<rect x="192" y="744" width="24" height="24" fill="#1f2937"/>
<rect x="240" y="744" width="24" height="24" fill="#1f2937"/>
<rect x="288" y="744" width="24" height="24" fill="#1f2937"/>
<rect x="336" y="744" width="24" height="24" fill="#1f2937"/>
<rect x="384" y="744" width="24" height="24" fill="#1f2937"/>
<rect x="432" y="744" width="24" height="24" fill="#1f2937"/>
<rect x="480" y="744" width="24" height="24" fill="#1f2937"/>
<rect x="528" y="744" width="24" height="24" fill="#1f2937"/>
<rect x="576" y="744" width="24" height="24" fill="#1f2937"/>
<rect x="624" y="744" width="24" height="24" fill="#1f2937"/>
<rect x="672" y="744" width="24" height="24" fill="#1f2937"/>
<rect x="720" y="744" width="24" height="24" fill="#1f2937"/>
<rect x="768" y="744" width="24" height="24" fill="#1f2937"/>
<rect x="816" y="744" width="24" height="24" fill="#1f2937"/>
<rect x="864" y="744" width="24" height="24" fill="#1f2937"/>
<rect x="912" y="744" width="24" height="24" fill="#1f2937"/>
<rect x="960" y="744" width="24" height="24" fill="#1f2937"/>
<rect x="1008" y="744" width="24" height="24" fill="#1f2937"/>
<rect x="1056" y="744" width="24" height="24" fill="#1f2937"/>
<rect x="1104" y="744" width="24" height="24" fill="#1f2937"/>
<rect x="1152" y="744" width="24" height="24" fill="#1f2937"/>
<rect x="1200" y="744" width="24" height="24" fill="#1f2937"/>
<rect x="1248" y="744" width="24" height="24" fill="#1f2937"/>
<rect x="1296" y="744" width="24" height="24" fill="#1f2937"/>
<rect x="1344" y="744" width="24" height="24" fill="#1f2937"/>
<rect x="1392" y="744" width="24" height="24" fill="#1f2937"/>
<rect x="1440" y="744" width="24" height="24" fill="#1f2937"/>
<rect x="1488" y="744" width="24" height="24" fill="#1f2937"/>
<path d="M0 0H1512M0 24H1512M0 48H1512M0 72H1512M0 96H1512M0 120H1512M0 144H1512M0 168H1512M0 192H1512M0 216H1512M0 240H1512M0 264H1512M0 288H1512M0 312H1512M0 336H1512M0 360H1512M0 384H1512M0 408H1512M0 432H1512M0 456H1512M0 480H1512M0 504H1512M0 528H1512M0 552H1512M0 576H1512M0 600H1512M0 624H1512M0 648H1512M0 672H1512M0 696H1512M0 720H1512M0 744H1512M0 768H1512M0 0V768M24 0V768M48 0V768M72 0V768M96 0V768M120 0V768M144 0V768M168 0V768M192 0V768M216 0V768M240 0V768M264 0V768M288 0V768M312 0V768M336 0V768M360 0V768M384 0V768M408 0V768M432 0V768M456 0V768M480 0V768M504 0V768M528 0V768M552 0V768M576 0V768M600 0V768M624 0V768M648 0V768M672 0V768M696 0V768M720 0V768M744 0V768M768 0V768M792 0V768M816 0V768M840 0V768M864 0V768M888 0V768M912 0V768M936 0V768M960 0V768M984 0V768M1008 0V768M1032 0V768M1056 0V768M1080 0V768M1104 0V768M1128 0V768M1152 0V768M1176 0V768M1200 0V768M1224 0V768M1248 0V768M1272 0V768M1296 0V768M1320 0V768M1344 0V768M1368 0V768M1392 0V768M1416 0V768M1440 0V768M1464 0V768M1488 0V768M1512 0V768" stroke="#cbd5e1" stroke-width="1" fill="none"/>
</svg>
